<?xml version="1.0" encoding="utf-8"?>
<!-- Generator: Adobe Illustrator 22.1.0, SVG Export Plug-In . SVG Version: 6.00 Build 0)  -->
<svg version="1.1" id="Слой_1" xmlns="http://www.w3.org/2000/svg" xmlns:xlink="http://www.w3.org/1999/xlink" x="0px" y="0px"
	 viewBox="0 0 352 352" style="enable-background:new 0 0 352 352;" xml:space="preserve">
<style type="text/css">
	.st0{fill:palevioletred;stroke:palevioletred;stroke-miterlimit:10;}
	.st1{fill:none;stroke:palevioletred;stroke-width:15;stroke-miterlimit:10;}
</style>
<path class="st0" d="M256.4,185.9H84.3c-2.9,0-5.3-2.4-5.3-5.3v-8.2c0-2.9,2.4-5.3,5.3-5.3h172.1c2.9,0,5.3,2.4,5.3,5.3v8.2
	C261.7,183.5,259.3,185.9,256.4,185.9z"/>
<path class="st0" d="M220.5,143.8l63.2,26c2.2,0.9,3.2,3.4,2.3,5.6l-2.2,5.3c-0.9,2.2-3.4,3.2-5.6,2.3L215,157
	c-2.2-0.9-3.2-3.4-2.3-5.6l2.2-5.3C215.8,143.9,218.3,142.9,220.5,143.8z"/>
<path class="st0" d="M215.2,196.4l62.8-26.8c2.2-0.9,4.7,0.1,5.6,2.3l2,4.6c0.9,2.2-0.1,4.7-2.3,5.6l-62.8,26.8
	c-2.2,0.9-4.7-0.1-5.6-2.3l-2-4.6C212,199.8,213,197.3,215.2,196.4z"/>
<circle class="st1" cx="176.6" cy="176.4" r="168"/>
</svg>
